<svg xmlns="http://www.w3.org/2000/svg" width="137" height="23.938" viewBox="0 0 137 23.938">
  <defs>
    <style>
      .cls-1 {
        fill: #fff;
        fill-rule: evenodd;
      }
    </style>
  </defs>
  <path id="Фигура_1" data-name="Фигура 1" class="cls-1" d="M69.961,51.953L55.577,41.335a1.269,1.269,0,0,0-1.361-.1,1.349,1.349,0,0,0-.71,1.2V49H48.738a0.875,0.875,0,0,0,0,1.739h4.771v1.39H45.775a0.875,0.875,0,0,0,0,1.739h7.734v1.436H48.738a0.875,0.875,0,0,0,0,1.739H53.51v6.6a1.354,1.354,0,0,0,.71,1.2,1.259,1.259,0,0,0,.6.15,1.273,1.273,0,0,0,.762-0.252l14.383-10.6a1.361,1.361,0,0,0,.548-1.093A1.4,1.4,0,0,0,69.961,51.953ZM56.2,61.129V57.047h2.591a0.875,0.875,0,0,0,0-1.739h-2.6L56.18,53.872h5.147a0.875,0.875,0,0,0,0-1.739H56.169l-0.009-1.39h2.627a0.875,0.875,0,0,0,0-1.739H56.15l-0.025-3.957,10.828,7.991Zm29-7.767a6.049,6.049,0,0,0-1.277-1.036,16.036,16.036,0,0,0-1.787-.942q-0.41-.187-0.923-0.4a5.648,5.648,0,0,1-.937-0.493,3.081,3.081,0,0,1-.73-0.651,1.215,1.215,0,0,1-.268-0.791,1.554,1.554,0,0,1,.12-0.579,1.86,1.86,0,0,1,.334-0.54,1.77,1.77,0,0,1,.515-0.393,1.88,1.88,0,0,1,1.37-.044,4.642,4.642,0,0,1,.67.266,5.3,5.3,0,0,1,.6.346c0.194,0.13.366,0.249,0.5,0.343a1.04,1.04,0,0,0,.506.235,1.465,1.465,0,0,0,.591-0.013,1.755,1.755,0,0,0,.564-0.237,1.476,1.476,0,0,0,.467-0.481,1.429,1.429,0,0,0,.094-1.269,2.771,2.771,0,0,0-.879-1.148,5.33,5.33,0,0,0-1.565-.848,6.413,6.413,0,0,0-2.031-.36l-0.15,0a6.1,6.1,0,0,0-1.781.266,5.309,5.309,0,0,0-1.706.87A4.483,4.483,0,0,0,77.2,52.3a6.352,6.352,0,0,0,1.484,1,18.28,18.28,0,0,0,1.8.765,6.187,6.187,0,0,1,.732.315,3.286,3.286,0,0,1,.722.491,2.911,2.911,0,0,1,.557.681,1.659,1.659,0,0,1,.218.862,2.287,2.287,0,0,1-.184.942,2,2,0,0,1-.489.682,2.207,2.207,0,0,1-.713.424,2.813,2.813,0,0,1-1.768.019,4.707,4.707,0,0,1-.844-0.345,6.663,6.663,0,0,1-.767-0.473c-0.25-.179-0.488-0.346-0.718-0.5a1.374,1.374,0,0,0-.967-0.23,1.268,1.268,0,0,0-.9.657,1.337,1.337,0,0,0-.232.748,2.114,2.114,0,0,0,.163.856,2.813,2.813,0,0,0,.55.844,3.493,3.493,0,0,0,1,.729,9.924,9.924,0,0,0,1.582.653,5.483,5.483,0,0,0,1.7.26c0.095,0,.19,0,0.284-0.006a6.014,6.014,0,0,0,4.28-1.562,5.5,5.5,0,0,0,1.463-3.852,4.88,4.88,0,0,0-.2-1.607A3.484,3.484,0,0,0,85.193,53.362Zm14.459-8.895a1.605,1.605,0,0,0-1.316.474,1.509,1.509,0,0,0-.365.951v8.594a10.64,10.64,0,0,1-.132,1.774,3.139,3.139,0,0,1-.474,1.248,2.2,2.2,0,0,1-.919.763,4.4,4.4,0,0,1-3.07-.011,2.235,2.235,0,0,1-.93-0.785,3.491,3.491,0,0,1-.5-1.267,8.832,8.832,0,0,1-.154-1.721V45.893a1.428,1.428,0,0,0-.4-0.985,1.671,1.671,0,0,0-1.284-.44,1.618,1.618,0,0,0-1.289.469,1.46,1.46,0,0,0-.392.956V55.927a5.353,5.353,0,0,0,.58,2.555,5.577,5.577,0,0,0,1.493,1.787,6.332,6.332,0,0,0,2.069,1.057,8.117,8.117,0,0,0,4.685,0,6.093,6.093,0,0,0,2.06-1.071,5.331,5.331,0,0,0,2.014-4.329V45.893a1.429,1.429,0,0,0-.4-0.985A1.672,1.672,0,0,0,99.652,44.468Zm11.825,9.9,0.061-.012L112,54.257a4.506,4.506,0,0,0,2.521-1.487,4.929,4.929,0,0,0,.945-3.231,6.358,6.358,0,0,0-.366-2.3,3.513,3.513,0,0,0-1.109-1.521,4.431,4.431,0,0,0-1.8-.794,11.59,11.59,0,0,0-2.405-.226h-3.414a6.752,6.752,0,0,0-.992.061,1.411,1.411,0,0,0-.675.264,1.066,1.066,0,0,0-.356.579,3.339,3.339,0,0,0-.087.846V60.13a1.506,1.506,0,0,0,.365.951,1.542,1.542,0,0,0,1.271.474,1.752,1.752,0,0,0,1.3-.435,1.389,1.389,0,0,0,.424-0.99V55.054l5.629,6.089a1.39,1.39,0,0,0,1.037.417c0.047,0,.095,0,0.145-0.005a1.848,1.848,0,0,0,1.219-.574,1.626,1.626,0,0,0,.491-1.23,1.8,1.8,0,0,0-.537-1.215Zm-3.86-2.9V47.782h2.162a5.4,5.4,0,0,1,.925.078,2.061,2.061,0,0,1,.739.273,1.333,1.333,0,0,1,.477.532,1.964,1.964,0,0,1,.179.9,1.7,1.7,0,0,1-.543,1.521,3.4,3.4,0,0,1-1.777.374h-2.162ZM127.471,44.7h-6.985a1.94,1.94,0,0,0-1.212.322,1.4,1.4,0,0,0-.446,1.173V60.386a1.108,1.108,0,0,0,.395.8,1.768,1.768,0,0,0,1.263.372,1.864,1.864,0,0,0,1.281-.367,1.087,1.087,0,0,0,.423-0.8V54.263h4.58a1.69,1.69,0,0,0,1.181-.346,1.5,1.5,0,0,0,.387-1.149,1.594,1.594,0,0,0-.394-1.166,1.763,1.763,0,0,0-1.174-.375h-4.58V47.736h5.259A1.792,1.792,0,0,0,128.6,47.4a1.386,1.386,0,0,0,.42-1.189,1.57,1.57,0,0,0-.424-1.168A1.647,1.647,0,0,0,127.471,44.7Zm9.854,0.872a1.566,1.566,0,0,0-.56-0.77,2.089,2.089,0,0,0-2.268,0,1.55,1.55,0,0,0-.558.764l-4.656,13.959a1.434,1.434,0,0,0,.158,1.577,1.77,1.77,0,0,0,1.262.452,1.713,1.713,0,0,0,1.2-.393,2.479,2.479,0,0,0,.621-0.978l0.942-2.531h4.3L138.8,60.3a2.5,2.5,0,0,0,.569.877,1.5,1.5,0,0,0,1.1.376l0.088,0a1.743,1.743,0,0,0,1.264-.466,1.415,1.415,0,0,0,.2-1.518Zm-3.147,9.022,1.453-4.81,1.453,4.81h-2.906Zm22.359,2.644a1.232,1.232,0,0,0-1.324.188q-0.292.231-.584,0.45a4.382,4.382,0,0,1-.625.388,4.07,4.07,0,0,1-.795.3,4.806,4.806,0,0,1-1.058.144h-0.1a4.041,4.041,0,0,1-1.941-.452,4.457,4.457,0,0,1-1.479-1.275,5.819,5.819,0,0,1-.9-1.847,7.648,7.648,0,0,1-.307-2.155,8.286,8.286,0,0,1,.275-2.137,5.894,5.894,0,0,1,.805-1.8,4.235,4.235,0,0,1,1.314-1.249,3.387,3.387,0,0,1,1.78-.469,3.692,3.692,0,0,1,1.508.272,7.821,7.821,0,0,1,1.09.588c0.32,0.212.615,0.391,0.874,0.532a1.063,1.063,0,0,0,.963.035,1.55,1.55,0,0,0,.5-0.3,1.471,1.471,0,0,0,.3-0.345c0.032-.065.075-0.172,0.132-0.321A1.233,1.233,0,0,0,157,47.164a1.974,1.974,0,0,0-.476-0.934,4.581,4.581,0,0,0-1.114-.952,7.045,7.045,0,0,0-3.751-1.043,7.49,7.49,0,0,0-2.986.6,6.889,6.889,0,0,0-2.4,1.725,8.324,8.324,0,0,0-1.6,2.742,11.1,11.1,0,0,0-.613,3.674,10.325,10.325,0,0,0,.579,3.691,8.01,8.01,0,0,0,1.7,2.781,7.278,7.278,0,0,0,2.595,1.746,8.694,8.694,0,0,0,3.23.6,6.676,6.676,0,0,0,2.181-.336,6.865,6.865,0,0,0,1.644-.8,4.643,4.643,0,0,0,1.066-.976,2.111,2.111,0,0,0,.45-0.863,1.6,1.6,0,0,0-.156-0.889A1.448,1.448,0,0,0,156.537,57.238Zm12.119,1.049H163.4V54.263h5.033a1.689,1.689,0,0,0,1.18-.346A1.5,1.5,0,0,0,170,52.768a1.589,1.589,0,0,0-.381-1.167,1.637,1.637,0,0,0-1.186-.374H163.4V47.736h5.259A1.792,1.792,0,0,0,169.8,47.4a1.388,1.388,0,0,0,.421-1.189,1.574,1.574,0,0,0-.424-1.168,1.651,1.651,0,0,0-1.122-.343h-6.984a1.936,1.936,0,0,0-1.212.322,1.4,1.4,0,0,0-.447,1.173V59.828a1.357,1.357,0,0,0,.477,1.19,2.051,2.051,0,0,0,1.182.3h6.962A2.2,2.2,0,0,0,170,61a1.823,1.823,0,0,0,0-2.392A2.2,2.2,0,0,0,168.656,58.287Zm11.573-13.541h-2.261a0.945,0.945,0,0,0-.842.42,2.409,2.409,0,0,0-.251,1.283,2.823,2.823,0,0,0,.187,1.27,0.811,0.811,0,0,0,.771.387h0.9V60.432c0,0.512.284,1.123,1.635,1.123S182,60.945,182,60.432V46.172C182,45.522,181.693,44.746,180.229,44.746Z" transform="translate(-45 -41.063)"/>
</svg>
